<?xml version="1.0" standalone="no"?>
<!DOCTYPE svg PUBLIC "-//W3C//DTD SVG 20010904//EN"
 "http://www.w3.org/TR/2001/REC-SVG-20010904/DTD/svg10.dtd">
<svg version="1.0" xmlns="http://www.w3.org/2000/svg"
 width="500.000000pt" height="500.000000pt" viewBox="0 0 500.000000 500.000000"
 preserveAspectRatio="xMidYMid meet">

<g transform="translate(0.000000,500.000000) scale(0.100000,-0.100000)"
fill="#000000" stroke="none">
<path d="M3660 4205 l0 -65 -65 0 -65 0 0 -65 0 -65 65 0 65 0 0 65 0 65 70 0
70 0 0 -60 0 -59 73 -3 72 -3 3 -282 2 -283 205 0 205 0 0 -70 0 -70 -140 0
-140 0 0 -135 c0 -101 3 -135 13 -136 6 0 68 0 137 0 l125 0 3 135 3 136 64 0
65 0 0 -70 c0 -49 4 -70 13 -71 6 -1 36 -2 64 -3 29 -1 53 -4 53 -8 0 -5 0
-132 0 -283 l0 -275 -65 0 -65 0 0 -65 0 -65 70 0 70 0 0 -65 0 -65 65 0 65 0
0 65 0 65 -65 0 -65 0 0 65 0 65 65 0 65 0 0 280 0 280 -65 0 -64 0 -3 73 -3
72 -67 3 -67 3 -3 67 -3 67 -62 3 -63 3 0 64 0 65 -140 0 -140 0 0 220 0 220
-65 0 -65 0 0 125 0 125 -145 0 -145 0 0 -65z"/>
<path d="M440 4090 l0 -70 -110 0 -110 0 0 -220 0 -220 65 0 65 0 0 -135 0
-135 75 0 75 0 0 -69 c0 -62 2 -70 21 -76 11 -4 32 -4 46 0 50 12 63 -1 63
-66 l0 -59 420 0 420 0 0 -70 0 -70 208 -2 207 -3 0 -145 0 -145 -137 -3 -138
-3 0 -64 0 -65 205 0 205 0 0 -140 0 -140 75 0 75 0 0 -70 c0 -78 -9 -72 95
-74 l50 -1 3 -66 3 -66 -38 -7 c-21 -3 -118 -6 -215 -6 l-178 0 0 -70 0 -70
140 0 140 0 0 -75 0 -75 -347 2 -348 3 -3 72 -3 72 -67 3 -67 3 0 69 0 69 -72
-2 -73 -2 0 145 0 146 75 0 75 0 0 -75 0 -75 70 0 70 0 0 -65 0 -65 200 0 200
0 0 65 0 65 -135 0 -135 0 0 75 0 75 -70 0 -70 0 0 205 0 204 68 3 67 3 0 70
0 70 -132 3 -133 3 0 -76 0 -75 -75 0 -75 0 0 -130 0 -130 -25 -6 c-14 -3 -35
-4 -47 -1 -11 3 -34 3 -49 0 l-29 -5 0 -419 0 -419 75 0 75 0 0 -145 0 -146
73 3 72 3 3 142 3 143 274 0 275 0 0 -70 0 -70 60 0 60 0 0 70 0 70 80 0 80 0
0 -70 0 -70 -75 0 -75 0 -2 -218 -3 -217 -197 -3 -198 -2 0 -70 0 -70 275 0
275 0 0 215 0 215 75 0 75 0 0 -75 0 -75 70 0 70 0 0 -65 0 -65 273 2 272 3 3
62 3 63 -213 2 -213 3 -1 65 c-1 36 -2 68 -3 73 -1 4 -30 7 -66 7 l-65 0 0 75
0 75 -68 0 -68 0 1 133 1 132 67 3 66 3 3 142 3 142 68 3 67 3 0 -76 0 -75 70
0 70 0 0 -135 0 -135 65 0 65 0 0 -70 0 -70 135 0 135 0 0 -70 0 -70 135 0
135 0 0 70 0 70 -135 0 -135 0 0 70 0 70 -65 0 -65 0 0 135 0 134 63 3 62 3 3
72 3 72 67 3 67 3 1 45 c3 101 -13 90 134 90 l130 0 0 70 0 70 70 0 70 0 0
140 0 140 65 0 65 0 0 65 0 65 75 0 75 0 0 -65 0 -65 65 0 65 0 0 -65 0 -65
200 0 200 0 0 65 0 65 -60 0 -60 0 0 65 0 64 -142 3 -143 3 -3 142 -3 142 -62
3 -62 3 -3 278 -2 277 -70 0 -70 0 0 65 0 65 -65 0 -65 0 0 75 0 75 -70 0 -70
0 0 70 0 70 -405 0 -405 0 0 -65 0 -65 -200 0 -199 0 -3 -77 -3 -78 -72 -3
-73 -3 0 81 0 80 -140 0 -140 0 0 65 0 65 -135 0 -135 0 0 -70 0 -70 135 0
134 0 3 -72 3 -73 138 -3 137 -3 0 -64 0 -65 145 0 146 0 -3 -142 -3 -143 -67
-3 -68 -3 0 -64 0 -65 -75 0 -75 0 0 65 0 65 -280 0 -280 0 0 75 0 75 -135 0
-135 0 0 65 0 65 -292 2 -293 3 -3 68 -3 67 -69 0 -70 0 0 150 0 150 145 0
145 0 0 65 0 65 145 0 145 0 0 -65 0 -65 210 0 210 0 0 65 0 65 -205 0 -204 0
-3 73 -3 72 -377 3 -378 2 0 -70z m3092 -432 l3 -73 63 -3 62 -3 0 -64 0 -65
70 0 70 0 0 -70 0 -70 -65 0 -65 0 0 -75 0 -75 -75 0 -75 0 0 -280 0 -280 -55
0 -54 0 -3 -62 -3 -63 -67 -3 -67 -3 -3 -67 -3 -67 -140 -3 c-77 -2 -168 0
-202 3 l-63 7 0 64 0 64 -205 0 -205 0 0 65 0 65 -65 0 -65 0 0 75 0 75 65 0
65 0 0 70 0 70 275 0 275 0 0 70 0 69 131 3 131 3 5 63 4 62 -70 0 -70 0 -3
73 -3 72 -50 1 c-27 1 -56 2 -62 3 -9 1 -13 22 -13 71 l0 70 -207 2 -206 3 -4
63 -5 62 71 0 71 0 0 75 0 75 405 0 404 0 3 -72z m-2192 -2103 l0 -65 -75 0
-75 0 0 65 0 65 75 0 75 0 0 -65z"/>
<path d="M1617 1343 c-4 -3 -7 -37 -7 -75 l0 -68 -135 0 -135 0 0 -75 0 -75
70 0 70 0 0 -65 0 -65 65 0 65 0 0 65 0 65 65 0 65 0 0 75 0 75 70 0 70 0 0
75 0 75 -128 0 c-71 0 -132 -3 -135 -7z"/>
</g>
</svg>
